<mxfile host="app.diagrams.net" modified="2025-08-25T12:00:00.000Z" agent="python" version="24.7.7" type="device">
  <diagram id="usecase" name="Use Case">
    <mxGraphModel><root>
      <mxCell id="0"/><mxCell id="1" parent="0"/>
      <mxCell id="actor1" value="UsuÃ¡rio" style="shape=umlActor;verticalLabelPosition=bottom;verticalAlign=top;" vertex="1" parent="1">
        <mxGeometry x="60" y="60" width="40" height="80" as="geometry"/>
      </mxCell>
      <mxCell id="sys" value="TechFlow Tasks" style="shape=swimlane;childLayout=stackLayout;horizontal=1;" vertex="1" parent="1">
        <mxGeometry x="180" y="30" width="400" height="260" as="geometry"/>
      </mxCell>
      <mxCell id="uc1" value="Criar Tarefa" style="ellipse;whiteSpace=wrap;html=1;" vertex="1" parent="sys">
        <mxGeometry x="120" y="40" width="120" height="40" as="geometry"/>
      </mxCell>
      <mxCell id="uc2" value="Atualizar Tarefa" style="ellipse;whiteSpace=wrap;html=1;" vertex="1" parent="sys">
        <mxGeometry x="120" y="90" width="140" height="40" as="geometry"/>
      </mxCell>
      <mxCell id="uc3" value="Consultar Tarefas" style="ellipse;whiteSpace=wrap;html=1;" vertex="1" parent="sys">
        <mxGeometry x="120" y="140" width="160" height="40" as="geometry"/>
      </mxCell>
      <mxCell id="uc4" value="Excluir Tarefa" style="ellipse;whiteSpace=wrap;html=1;" vertex="1" parent="sys">
        <mxGeometry x="120" y="190" width="120" height="40" as="geometry"/>
      </mxCell>
      <mxCell id="edge1" edge="1" parent="1" source="actor1" target="uc1"><mxGeometry relative="1" as="geometry"/></mxCell>
      <mxCell id="edge2" edge="1" parent="1" source="actor1" target="uc2"><mxGeometry relative="1" as="geometry"/></mxCell>
      <mxCell id="edge3" edge="1" parent="1" source="actor1" target="uc3"><mxGeometry relative="1" as="geometry"/></mxCell>
      <mxCell id="edge4" edge="1" parent="1" source="actor1" target="uc4"><mxGeometry relative="1" as="geometry"/></mxCell>
    </root></mxGraphModel>
  </diagram>
</mxfile>
